<svg xmlns="http://www.w3.org/2000/svg" width="1200" height="300" viewBox="0 0 1200 300" role="img" aria-label="remote-desk">
  <defs>
    <linearGradient id="bg" x1="0" y1="0" x2="1" y2="1">
      <stop offset="0" stop-color="#0d1117"/>
      <stop offset="1" stop-color="#882c28"/>
    </linearGradient>
    <linearGradient id="accentbar" x1="0" y1="0" x2="0" y2="1">
      <stop offset="0" stop-color="#f85149"/>
      <stop offset="1" stop-color="#882c28"/>
    </linearGradient>
  </defs>
  <rect width="1200" height="300" fill="url(#bg)"/>
  <rect width="1200" height="300" fill="#0d1117" fill-opacity="0.55"/>
  <rect x="0" y="0" width="14" height="300" fill="url(#accentbar)"/>
  <circle cx="1080" cy="80" r="180" fill="#f85149" fill-opacity="0.06"/>
  <circle cx="1140" cy="240" r="120" fill="#f85149" fill-opacity="0.05"/>
  <text x="60" y="96" font-family="Segoe UI,Helvetica,Arial,sans-serif" font-size="56" font-weight="700" fill="#f0f6fc">remote-desk</text>
  <text x="60" y="152" font-family="Segoe UI,Helvetica,Arial,sans-serif" font-size="24" fill="#8b949e">Open-source remote desktop for Windows over a relay server</text>
  <g><rect x="60" y="232" rx="13" ry="13" width="76" height="30" fill="#161b22" stroke="#f85149" stroke-opacity="0.45"/><text x="98" y="252" text-anchor="middle" font-family="SFMono-Regular,Consolas,Liberation Mono,Menlo,monospace" font-size="14" fill="#c9d1d9">python</text></g><g><rect x="148" y="232" rx="13" ry="13" width="112" height="30" fill="#161b22" stroke="#f85149" stroke-opacity="0.45"/><text x="204" y="252" text-anchor="middle" font-family="SFMono-Regular,Consolas,Liberation Mono,Menlo,monospace" font-size="14" fill="#c9d1d9">websockets</text></g><g><rect x="272" y="232" rx="13" ry="13" width="49" height="30" fill="#161b22" stroke="#f85149" stroke-opacity="0.45"/><text x="296" y="252" text-anchor="middle" font-family="SFMono-Regular,Consolas,Liberation Mono,Menlo,monospace" font-size="14" fill="#c9d1d9">mss</text></g><g><rect x="333" y="232" rx="13" ry="13" width="76" height="30" fill="#161b22" stroke="#f85149" stroke-opacity="0.45"/><text x="371" y="252" text-anchor="middle" font-family="SFMono-Regular,Consolas,Liberation Mono,Menlo,monospace" font-size="14" fill="#c9d1d9">pynput</text></g><g><rect x="421" y="232" rx="13" ry="13" width="76" height="30" fill="#161b22" stroke="#f85149" stroke-opacity="0.45"/><text x="459" y="252" text-anchor="middle" font-family="SFMono-Regular,Consolas,Liberation Mono,Menlo,monospace" font-size="14" fill="#c9d1d9">pygame</text></g>
</svg>